<svg width="30" height="30" viewBox="0 0 30 30" fill="none" xmlns="http://www.w3.org/2000/svg">
<path d="M24.965 20.8042C24.965 20.6993 24.965 20.5594 24.9301 20.4895C24.8252 20.1399 21.958 18.6713 21.4336 18.3566C21.049 18.1469 20.5944 17.7273 20.1748 17.7273C19.3007 17.7273 18.042 20.2797 17.2727 20.2797C16.8881 20.2797 16.3986 19.9301 16.049 19.7203C13.4615 18.2867 11.6783 16.5035 10.2448 13.951C10.035 13.6014 9.68532 13.1119 9.68532 12.7273C9.68532 11.958 12.2378 10.6993 12.2378 9.82517C12.2378 9.37063 11.8182 8.91608 11.6084 8.56643C11.2937 8.00699 9.86014 5.17482 9.51049 5.03496C9.40559 5 9.3007 5 9.1958 5C8.67133 5 7.69231 5.24475 7.23776 5.41958C5.94406 6.01399 5 8.46154 5 9.82517C5 11.1189 5.52448 12.3077 5.97902 13.5315C7.51748 17.7972 12.1678 22.4476 16.4336 24.021C17.6573 24.4755 18.8462 25 20.1748 25C21.5035 25 23.951 24.0559 24.5455 22.7622C24.7552 22.3077 24.965 21.2937 24.965 20.8042ZM29.965 5.62937V24.3706C29.965 27.4825 27.4476 30 24.3357 30H5.62937C2.51748 30 0 27.4825 0 24.3706V5.62937C0 2.51748 2.51748 0 5.62937 0H24.3357C27.4476 0 29.965 2.51748 29.965 5.62937Z" fill="url(#paint0_linear_532_1480)"/>
<defs>
<linearGradient id="paint0_linear_532_1480" x1="0" y1="0" x2="30" y2="29.965" gradientUnits="userSpaceOnUse">
<stop stop-color="#FFA28D"/>
<stop offset="1" stop-color="#ED7256"/>
</linearGradient>
</defs>
</svg>
