<svg width="145" height="34" viewBox="0 0 145 34" fill="none" xmlns="http://www.w3.org/2000/svg">
<g clip-path="url(#clip0_350_910)">
<path d="M22.3083 24.6904C22.3083 29.379 17.705 33.4515 11.2483 33.4515C4.18139 33.4515 0.557518 29.1912 0 28.4022L1.50681 25.7573C2.66616 27.2574 4.16089 28.4665 5.87182 29.2884C7.58274 30.1103 9.46254 30.5221 11.3613 30.4911C15.7311 30.4911 19.3549 27.8462 19.3549 24.48C19.3549 21.6022 17.5468 19.5209 11.5045 18.4088C3.06635 16.9061 1.11504 14.0358 1.11504 9.85812C1.11504 5.27469 5.16081 1.59293 11.5271 1.59293C14.9895 1.54566 18.3306 2.8634 20.8241 5.25967L19.4303 7.80685C18.4012 6.74522 17.1651 5.9049 15.7982 5.33761C14.4312 4.77033 12.9623 4.4881 11.4819 4.50829C7.43609 4.50829 4.09098 6.34166 4.09098 9.67779C4.09098 13.0139 6.4642 14.404 11.8058 15.4709C19.4755 16.9962 22.3083 19.4533 22.3083 24.6904Z" fill="#1B1B1B"/>
<path d="M44.6165 1.93105V4.93657H36.4345V33.0608H33.4209V4.899H25.2842V1.93105H44.6165Z" fill="#1B1B1B"/>
<path d="M92.2016 30.1154V33.1209H75.8452V1.93105H78.8588V30.1154H92.2016Z" fill="#1B1B1B"/>
<path d="M123.43 9.01657V33.0608H120.462V1.19469L142.024 26.0354V1.93105H145.038V33.8122L123.43 9.01657Z" fill="#1B1B1B"/>
<path d="M59.456 14.1684C59.456 14.1684 56.7593 10.4691 56.3793 9.44489C56.1633 8.77861 56.1761 8.05951 56.4158 7.40133C56.6266 6.93355 56.732 6.42536 56.7246 5.91256C56.7172 5.39977 56.5972 4.89482 56.373 4.43327C55.6082 2.79004 53.8639 1.96759 52.479 2.6155L52.4271 2.62463C52.1579 2.14102 51.7527 1.74657 51.2614 1.48994C50.7702 1.23331 50.2143 1.12573 49.6624 1.18048C49.2098 1.26007 49.3302 1.94084 49.7933 1.92045C50.2131 1.89031 50.6325 1.98478 50.9986 2.19195C51.3647 2.39912 51.6611 2.70973 51.8505 3.08463C51.3944 3.57538 51.1016 4.19471 51.012 4.85784C50.9225 5.52096 51.0406 6.19549 51.3502 6.78908C51.5851 7.33109 51.9584 7.80215 52.433 8.15517C52.9075 8.50819 53.4667 8.73082 54.0545 8.80081V8.80081C55.5357 9.30331 58.8279 14.6832 58.8279 14.6832L59.456 14.1684ZM51.8814 6.50493C51.5722 5.95307 51.4934 5.30197 51.662 4.69257C51.8306 4.08317 52.233 3.5645 52.7822 3.24885C53.3767 3.04378 54.028 3.0778 54.5977 3.34369C55.1675 3.60958 55.611 4.08642 55.834 4.67302C56.143 5.2229 56.2223 5.87202 56.0549 6.47982C55.8874 7.08762 55.4866 7.60517 54.9393 7.9204C54.3453 8.13178 53.6918 8.10185 53.1198 7.83705C52.5477 7.57226 52.103 7.09382 51.8814 6.50493V6.50493Z" fill="#1B1B1B"/>
<path d="M65.7413 8.72931C66.334 8.66276 66.8985 8.44111 67.3776 8.08684C67.8567 7.73257 68.2333 7.25827 68.4694 6.71202C69.2541 5.07814 68.7701 3.22063 67.3843 2.56205C65.9986 1.90348 64.2832 2.74274 63.4685 4.33273C63.2387 4.79154 63.1126 5.29501 63.099 5.80768C63.0854 6.32036 63.1846 6.82977 63.3897 7.30007V7.30007C63.6215 7.96109 63.6256 8.68029 63.4015 9.34391C63.0091 10.3635 60.2678 14.0299 60.2678 14.0299L60.9368 14.5459C60.9368 14.5459 64.2541 9.21391 65.7413 8.72931ZM64.012 4.58036C64.238 3.9904 64.6876 3.51279 65.2637 3.25071C65.8398 2.98863 66.4962 2.96313 67.091 3.17972C67.6331 3.50437 68.0256 4.02842 68.1839 4.63894C68.3423 5.24946 68.2538 5.89757 67.9375 6.44364C67.7117 7.03317 67.2619 7.51011 66.6857 7.77095C66.1096 8.03179 65.4535 8.05549 64.8599 7.8369C64.3165 7.51527 63.9226 6.99261 63.7638 6.38269C63.605 5.77278 63.6942 5.12499 64.012 4.58036V4.58036Z" fill="#1B1B1B"/>
<path d="M59.7976 33.4515C61.3873 33.4515 61.0181 14.5843 61.0181 14.5843L60.4606 13.6451H59.2702L58.5771 14.5843C58.5771 14.5843 58.2155 33.4515 59.7976 33.4515Z" fill="#1B1B1B"/>
<path d="M59.2552 15.8166C59.2537 15.6985 59.2875 15.5828 59.3523 15.484C59.4172 15.3852 59.51 15.308 59.6191 15.2621C59.7282 15.2163 59.8484 15.2039 59.9646 15.2266C60.0807 15.2492 60.1875 15.3059 60.2712 15.3894C60.3549 15.4728 60.4117 15.5793 60.4344 15.6951C60.4572 15.811 60.4447 15.9309 60.3988 16.0397C60.3528 16.1485 60.2753 16.2411 60.1763 16.3057C60.0773 16.3704 59.9612 16.4041 59.8428 16.4027C59.687 16.4027 59.5375 16.3409 59.4273 16.231C59.3171 16.1211 59.2552 15.972 59.2552 15.8166Z" fill="white"/>
<path d="M100.836 1.01436H111.097V3.43381L103.819 3.56154V5.12442H111.097V6.76243L103.819 7.08552V9.01657H111.097V10.7523L103.819 10.9777V12.9313H111.097V14.5768L103.819 14.8849V16.846H111.097V18.6643L103.819 18.7845V20.7381H111.097V22.5414L103.819 22.7518V24.3222L111.097 24.3973V25.9677L103.819 25.8851V27.8011L111.097 27.8612V29.4992L103.819 29.7547V31.3326H111.097V34H100.836C99.7582 34 98.8767 33.3839 98.8767 32.6325V2.38188C98.8767 1.63049 99.7582 1.01436 100.836 1.01436Z" fill="#FFA28D"/>
<path opacity="0.1" d="M100.836 1.01436H101.099V34H100.836C99.7582 34 98.8767 33.3839 98.8767 32.6325V2.38188C98.8767 1.63049 99.7582 1.01436 100.836 1.01436Z" fill="#070707"/>
</g>
<defs>
 <clipPath>
<rect width="145" height="34" fill="white"/>
</clipPath>
</defs>
</svg>
