<svg width="32" height="22" viewBox="0 0 32 22" fill="none" xmlns="http://www.w3.org/2000/svg">
<path d="M9.89883 10.9606L0.188477 17.283V4.63824L9.89883 10.9606ZM22.2645 10.9606L31.9749 17.283V4.63824L22.2645 10.9606ZM20.8458 11.8871L16.5042 14.713C16.3763 14.7944 16.229 14.837 16.0817 14.837C15.9344 14.837 15.7871 14.7944 15.6591 14.713L11.3176 11.8871L0.831957 18.7134L0.223364 19.1088C0.413307 20.2019 1.3669 21.0392 2.51431 21.0392H29.649C30.7965 21.0392 31.75 20.2058 31.94 19.1088L31.3275 18.7134L20.8458 11.8871ZM16.0817 13.1353L31.3275 3.20785L31.94 2.81246C31.75 1.71544 30.7965 0.882019 29.649 0.882019H2.51431C1.3669 0.882019 0.413307 1.71932 0.223364 2.81246L0.831957 3.20785L16.0817 13.1353Z" fill="url(#paint0_linear_551_2213)"/>
<defs>
<linearGradient id="paint0_linear_551_2213" x1="0.188477" y1="0.882019" x2="18.4215" y2="29.6341" gradientUnits="userSpaceOnUse">
<stop stop-color="#FFA28D"/>
<stop offset="1" stop-color="#ED7256"/>
</linearGradient>
</defs>
</svg>
