<svg width="32" height="34" viewBox="0 0 32 34" fill="none" xmlns="http://www.w3.org/2000/svg">
<path d="M25.2786 23.0073H13.5514C12.4841 22.9997 11.4505 22.6335 10.6166 21.9676C9.78274 21.3016 9.19712 20.3746 8.95392 19.3356L7.08504 11.74C6.9131 11.0347 6.90429 10.2996 7.05927 9.59036C7.21426 8.88117 7.52895 8.21665 7.97943 7.64735C8.42992 7.07805 9.00431 6.61895 9.65894 6.30497C10.3136 5.991 11.0312 5.83042 11.7572 5.83544H27.1755C27.9015 5.83042 28.6191 5.991 29.2738 6.30497C29.9284 6.61895 30.5028 7.07805 30.9533 7.64735C31.4038 8.21665 31.7185 8.88117 31.8734 9.59036C32.0284 10.2996 32.0196 11.0347 31.8477 11.74L29.9788 19.3543C29.7264 20.4062 29.1236 21.341 28.2694 22.0049C27.4151 22.6688 26.3604 23.0223 25.2786 23.0073ZM11.7012 8.17111C11.3318 8.17224 10.9675 8.25691 10.6355 8.41878C10.3035 8.58065 10.0125 8.81552 9.78418 9.1058C9.55586 9.39609 9.3962 9.73426 9.31714 10.095C9.23809 10.4557 9.2417 10.8297 9.3277 11.1888L11.1966 18.8031C11.3231 19.3367 11.6266 19.8118 12.0575 20.151C12.4885 20.4903 13.0216 20.6738 13.57 20.6716H25.2786C25.8271 20.6738 26.3601 20.4903 26.7911 20.151C27.222 19.8118 27.5255 19.3367 27.652 18.8031L29.5209 11.1888C29.6088 10.8295 29.6138 10.4549 29.5355 10.0934C29.4572 9.73195 29.2976 9.39299 29.069 9.10224C28.8403 8.8115 28.5484 8.57657 28.2155 8.41525C27.8826 8.25393 27.5174 8.17045 27.1474 8.17111H11.7012Z" fill="#999999"/>
<path d="M8.44817 13.73C8.18131 13.7269 7.92358 13.6324 7.71786 13.4625C7.51215 13.2925 7.37085 13.0572 7.3175 12.7958L5.64485 5.53648C5.4904 4.87519 5.11604 4.28589 4.58303 3.86499C4.05002 3.44409 3.38991 3.21651 2.71071 3.21949H1.18758C0.877794 3.21949 0.580696 3.09645 0.361645 2.87744C0.142593 2.65843 0.0195313 2.36139 0.0195312 2.05166C0.0195313 1.74193 0.142593 1.44488 0.361645 1.22587C0.580696 1.00686 0.877794 0.883822 1.18758 0.883822H2.71071C3.91782 0.879606 5.09069 1.28476 6.03774 2.0331C6.9848 2.78144 7.65006 3.82874 7.92488 5.00395L9.58818 12.2632C9.62418 12.4123 9.63021 12.5671 9.60591 12.7186C9.5816 12.87 9.52746 13.0151 9.44662 13.1455C9.36577 13.2759 9.25984 13.3889 9.13496 13.478C9.01008 13.5671 8.86875 13.6306 8.71916 13.6646C8.63135 13.6958 8.54053 13.7177 8.44817 13.73ZM13.7277 33.1161C12.9885 33.1161 12.2658 32.8969 11.6512 32.4863C11.0365 32.0757 10.5574 31.492 10.2745 30.8091C9.99161 30.1263 9.91759 29.3749 10.0618 28.65C10.206 27.925 10.562 27.2592 11.0848 26.7365C11.6075 26.2139 12.2735 25.858 12.9985 25.7138C13.7236 25.5696 14.4751 25.6436 15.1581 25.9264C15.8411 26.2093 16.4249 26.6883 16.8356 27.3028C17.2463 27.9174 17.4655 28.6399 17.4655 29.379C17.4655 30.3702 17.0717 31.3207 16.3707 32.0215C15.6698 32.7224 14.7191 33.1161 13.7277 33.1161ZM13.7277 27.9403C13.4468 27.9403 13.1722 28.0235 12.9386 28.1796C12.7051 28.3356 12.523 28.5574 12.4155 28.8169C12.308 29.0764 12.2799 29.3619 12.3347 29.6374C12.3895 29.9129 12.5248 30.1659 12.7234 30.3645C12.922 30.5631 13.1751 30.6984 13.4506 30.7531C13.7262 30.8079 14.0118 30.7798 14.2713 30.6723C14.5308 30.5648 14.7527 30.3828 14.9087 30.1493C15.0648 29.9158 15.1481 29.6412 15.1481 29.3603C15.1481 28.9837 14.9984 28.6225 14.7321 28.3562C14.4657 28.0899 14.1044 27.9403 13.7277 27.9403ZM26.6417 33.1161C25.9024 33.1161 25.1798 32.8969 24.5651 32.4863C23.9504 32.0757 23.4714 31.492 23.1885 30.8091C22.9056 30.1263 22.8315 29.3749 22.9758 28.65C23.12 27.925 23.476 27.2592 23.9987 26.7365C24.5214 26.2139 25.1874 25.858 25.9125 25.7138C26.6375 25.5696 27.3891 25.6436 28.0721 25.9264C28.755 26.2093 29.3388 26.6883 29.7495 27.3028C30.1602 27.9174 30.3794 28.6399 30.3794 29.379C30.3794 30.3702 29.9856 31.3207 29.2847 32.0215C28.5837 32.7224 27.633 33.1161 26.6417 33.1161ZM26.6417 27.9403C26.3612 27.9421 26.0875 28.027 25.8551 28.1841C25.6228 28.3413 25.4422 28.5637 25.3361 28.8233C25.2301 29.083 25.2033 29.3682 25.2591 29.6431C25.315 29.9179 25.451 30.1701 25.65 30.3678C25.849 30.5654 26.1021 30.6997 26.3774 30.7538C26.6526 30.8078 26.9377 30.7792 27.1967 30.6714C27.4557 30.5637 27.677 30.3816 27.8326 30.1483C27.9883 29.915 28.0714 29.6408 28.0714 29.3603C28.0714 29.1731 28.0343 28.9876 27.9624 28.8147C27.8904 28.6418 27.785 28.4849 27.6521 28.3529C27.5192 28.2209 27.3615 28.1165 27.1881 28.0457C27.0147 27.9748 26.829 27.939 26.6417 27.9403Z" fill="#999999"/>
<path d="M26.6402 27.9414H11.0725C10.1084 27.9414 9.18385 27.5585 8.50216 26.8768C7.82047 26.1951 7.4375 25.2705 7.4375 24.3065C7.4375 23.3424 7.82047 22.4179 8.50216 21.7362C9.18385 21.0545 10.1084 20.6715 11.0725 20.6715H13.5487C13.8585 20.6715 14.1556 20.7946 14.3747 21.0136C14.5937 21.2327 14.7168 21.5298 14.7168 21.8396C14.7168 22.1493 14.5937 22.4464 14.3747 22.6655C14.1556 22.8845 13.8585 23.0076 13.5487 23.0076H11.0725C10.728 23.0076 10.3976 23.1445 10.154 23.388C9.91044 23.6316 9.7736 23.962 9.7736 24.3065C9.7736 24.651 9.91044 24.9813 10.154 25.2249C10.3976 25.4685 10.728 25.6053 11.0725 25.6053H26.6402C26.95 25.6053 27.2471 25.7284 27.4661 25.9475C27.6852 26.1665 27.8083 26.4636 27.8083 26.7734C27.8083 27.0832 27.6852 27.3803 27.4661 27.5993C27.2471 27.8184 26.95 27.9414 26.6402 27.9414Z" fill="#999999"/>
</svg>
