<svg width="34" height="34" viewBox="0 0 34 34" fill="none" xmlns="http://www.w3.org/2000/svg">
<path d="M24.1103 33.0016C22.1606 31.5685 20.3731 29.9271 18.7795 28.1064C17.7235 26.9545 16.8515 25.6468 16.1942 24.2292C15.8416 23.5325 15.6522 22.7646 15.6403 21.9839C15.6284 21.2032 15.7944 20.43 16.1256 19.7228C16.4766 19.0053 16.999 18.3852 17.6468 17.9176C18.2945 17.4499 19.0475 17.1491 19.8392 17.0417C20.6309 16.9343 21.4368 17.0236 22.1858 17.3017C22.9347 17.5798 23.6036 18.0382 24.1332 18.6363L24.2933 18.8193C24.5804 18.5296 24.882 18.2548 25.197 17.9958C25.8621 17.4834 26.6491 17.1529 27.4806 17.0366C28.3121 16.9204 29.1596 17.0225 29.9397 17.3329C30.7198 17.6432 31.4057 18.1512 31.93 18.8069C32.4543 19.4625 32.799 20.2433 32.9301 21.0724C32.9829 21.332 33.0059 21.5968 32.9987 21.8616C32.9855 22.1838 32.9511 22.5047 32.8958 22.8224C32.5625 24.1821 31.9467 25.4563 31.0884 26.5624C29.2278 29.0118 27.0241 31.1805 24.545 33.0016H24.1103ZM24.3162 31.4919C25.9711 30.1818 27.5028 28.7232 28.892 27.1342C29.8059 26.1452 30.5761 25.0325 31.1799 23.8289C31.61 23.0236 31.7666 22.1003 31.626 21.1982C31.4916 20.4816 31.1375 19.8247 30.6127 19.3184C30.0879 18.8122 29.4186 18.4819 28.6975 18.3732C27.9544 18.2531 27.1923 18.3806 26.5288 18.736C25.8652 19.0915 25.337 19.6552 25.0254 20.3404C24.9772 20.4797 24.8881 20.6011 24.7697 20.6888C24.6513 20.7766 24.5092 20.8266 24.362 20.8323C24.0188 20.8323 23.8357 20.6264 23.687 20.329C23.418 19.7474 22.9915 19.2527 22.4557 18.9009C21.9199 18.5492 21.2963 18.3545 20.6556 18.3389C20.1458 18.3109 19.6362 18.397 19.1639 18.5908C18.6917 18.7846 18.2686 19.0814 17.9256 19.4594C17.5825 19.8375 17.3282 20.2873 17.181 20.776C17.0339 21.2648 16.9977 21.7803 17.075 22.2848C17.2005 22.9565 17.42 23.6072 17.7271 24.2177C18.3967 25.4735 19.2401 26.6286 20.2323 27.6489C21.4823 29.0352 22.8402 30.3202 24.2933 31.4919H24.3162Z" fill="#999999"/>
<path d="M23.5725 2.32671L24.442 6.7301L25.9176 14.0386C25.9612 14.1753 25.966 14.3213 25.9317 14.4606C25.8974 14.5999 25.8252 14.727 25.7232 14.8278C25.6333 14.9164 25.5203 14.978 25.3972 15.0056C25.274 15.0333 25.1455 15.0258 25.0264 14.9841C24.9072 14.9424 24.8022 14.8682 24.7231 14.7698C24.6441 14.6714 24.5942 14.5528 24.5792 14.4275C24.339 13.2837 24.1216 12.14 23.8929 10.9963C23.359 8.29704 22.8175 5.60544 22.2685 2.92147C22.1884 2.48685 22.0282 2.36102 21.5935 2.32671H7.30565C6.52776 2.32671 6.41338 2.41823 6.26467 3.1731L2.35238 22.6853C2.21511 23.3601 2.4782 23.6689 3.176 23.6689H11.9958C12.129 23.6575 12.263 23.6575 12.3962 23.6689C12.5557 23.6899 12.7022 23.7683 12.8082 23.8892C12.9143 24.0102 12.9728 24.1656 12.9728 24.3265C12.9728 24.4874 12.9143 24.6428 12.8082 24.7638C12.7022 24.8848 12.5557 24.9631 12.3962 24.9842H3.10737C2.79544 25.0025 2.48359 24.9472 2.19703 24.8227C1.91046 24.6981 1.65725 24.5079 1.45787 24.2674C1.25849 24.0268 1.11855 23.7427 1.04938 23.438C0.980212 23.1334 0.983754 22.8167 1.05972 22.5137L4.56019 4.99164C4.72034 4.22533 4.86904 3.44759 5.01776 2.70416C5.0958 2.21446 5.35091 1.77043 5.73468 1.4563C6.11844 1.14218 6.60418 0.979815 7.09974 1H26.9586C27.4482 0.979762 27.9281 1.13971 28.3076 1.44957C28.6871 1.75942 28.9398 2.19768 29.0177 2.6813C29.7842 6.48994 30.5392 10.31 31.3056 14.1187C31.3369 14.2102 31.3484 14.3073 31.3395 14.4036C31.3306 14.4999 31.3014 14.5932 31.2539 14.6775C31.2063 14.7617 31.1415 14.8349 31.0637 14.8924C30.9859 14.9498 30.8968 14.9902 30.8023 15.0108C30.7095 15.027 30.6143 15.0239 30.5227 15.0017C30.4312 14.9795 30.3451 14.9387 30.27 14.8819C30.1949 14.825 30.1323 14.7533 30.0861 14.6712C30.0399 14.5891 30.0111 14.4983 30.0015 14.4046C29.5554 12.1972 29.1207 10.0012 28.6746 7.79381C28.3542 6.19257 28.0454 4.59133 27.7251 2.99009C27.645 2.57835 27.4391 2.36105 27.073 2.36105C25.8833 2.3153 24.7394 2.32671 23.5725 2.32671Z" fill="#999999"/>
<path d="M8.97589 6.19218C8.97589 5.586 8.97589 4.97982 8.97589 4.37364C8.96624 4.28244 8.97593 4.19023 9.00434 4.10303C9.03276 4.01583 9.07925 3.93564 9.14079 3.86764C9.20233 3.79963 9.27754 3.74537 9.36148 3.7084C9.44542 3.67144 9.53621 3.65257 9.62793 3.65308C9.71993 3.64776 9.81201 3.66237 9.89786 3.69587C9.98371 3.72938 10.0613 3.78099 10.1254 3.84722C10.1894 3.91345 10.2385 3.99274 10.2691 4.07964C10.2997 4.16654 10.3113 4.25902 10.3029 4.35078C10.3029 5.39158 10.3029 6.43236 10.3029 7.47316C10.2848 7.99885 10.3705 8.52297 10.5551 9.01554C10.7397 9.50811 11.0194 9.95953 11.3785 10.344C11.7375 10.7285 12.1688 11.0385 12.6477 11.2563C13.1265 11.4741 13.6436 11.5955 14.1694 11.6135C14.6952 11.6315 15.2194 11.5458 15.712 11.3613C16.2047 11.1768 16.6562 10.8971 17.0407 10.5381C17.4253 10.1791 17.7353 9.74793 17.9532 9.26915C18.171 8.79037 18.2925 8.27338 18.3105 7.74768C18.3105 6.60394 18.3105 5.52884 18.3105 4.43085C18.2938 4.28401 18.3234 4.1356 18.3952 4.00642C18.467 3.87723 18.5773 3.7737 18.7109 3.71029C18.8046 3.66071 18.9092 3.63516 19.0153 3.63598C19.1214 3.6368 19.2256 3.66395 19.3186 3.71497C19.4116 3.76599 19.4904 3.83929 19.5481 3.9283C19.6057 4.01731 19.6404 4.11924 19.6489 4.22495C19.781 5.82354 19.7234 7.43216 19.4773 9.01721C19.1717 10.2107 18.4612 11.261 17.4671 11.9889C16.473 12.7168 15.2571 13.0771 14.0268 13.0082C12.7966 12.9394 11.6284 12.4456 10.7218 11.6114C9.81523 10.7771 9.22642 9.65402 9.05596 8.43393C8.953 7.6905 8.98733 6.19218 8.97589 6.19218Z" fill="#999999"/>
<path d="M24.1103 33.0016C22.1606 31.5685 20.3731 29.9271 18.7795 28.1064C17.7235 26.9545 16.8515 25.6468 16.1942 24.2292C15.8416 23.5325 15.6522 22.7646 15.6403 21.9839C15.6284 21.2032 15.7944 20.43 16.1256 19.7228C16.4766 19.0053 16.999 18.3852 17.6468 17.9176C18.2945 17.4499 19.0475 17.1491 19.8392 17.0417C20.6309 16.9343 21.4368 17.0236 22.1858 17.3017C22.9347 17.5798 23.6036 18.0382 24.1332 18.6363L24.2933 18.8193C24.5804 18.5296 24.882 18.2548 25.197 17.9958C25.8621 17.4834 26.6491 17.1529 27.4806 17.0366C28.3121 16.9204 29.1596 17.0225 29.9397 17.3329C30.7198 17.6432 31.4057 18.1512 31.93 18.8069C32.4543 19.4625 32.799 20.2433 32.9301 21.0724C32.9829 21.332 33.0059 21.5968 32.9987 21.8616C32.9855 22.1838 32.9511 22.5047 32.8958 22.8224C32.5625 24.1821 31.9467 25.4563 31.0884 26.5624C29.2278 29.0118 27.0241 31.1805 24.545 33.0016H24.1103ZM24.3162 31.4919C25.9711 30.1818 27.5028 28.7232 28.892 27.1342C29.8059 26.1452 30.5761 25.0325 31.1799 23.8289C31.61 23.0236 31.7666 22.1003 31.626 21.1982C31.4916 20.4816 31.1375 19.8247 30.6127 19.3184C30.0879 18.8122 29.4186 18.4819 28.6975 18.3732C27.9544 18.2531 27.1923 18.3806 26.5288 18.736C25.8652 19.0915 25.337 19.6552 25.0254 20.3404C24.9772 20.4797 24.8881 20.6011 24.7697 20.6888C24.6513 20.7766 24.5092 20.8266 24.362 20.8323C24.0188 20.8323 23.8357 20.6264 23.687 20.329C23.418 19.7474 22.9915 19.2527 22.4557 18.9009C21.9199 18.5492 21.2963 18.3545 20.6556 18.3389C20.1458 18.3109 19.6362 18.397 19.1639 18.5908C18.6917 18.7846 18.2686 19.0814 17.9256 19.4594C17.5825 19.8375 17.3282 20.2873 17.181 20.776C17.0339 21.2648 16.9977 21.7803 17.075 22.2848C17.2005 22.9565 17.42 23.6072 17.7271 24.2177C18.3967 25.4735 19.2401 26.6286 20.2323 27.6489C21.4823 29.0352 22.8402 30.3202 24.2933 31.4919H24.3162Z" stroke="#999999" stroke-width="0.5"/>
<path d="M23.5725 2.32671L24.442 6.7301L25.9176 14.0386C25.9612 14.1753 25.966 14.3213 25.9317 14.4606C25.8974 14.5999 25.8252 14.727 25.7232 14.8278C25.6333 14.9164 25.5203 14.978 25.3972 15.0056C25.274 15.0333 25.1455 15.0258 25.0264 14.9841C24.9072 14.9424 24.8022 14.8682 24.7231 14.7698C24.6441 14.6714 24.5942 14.5528 24.5792 14.4275C24.339 13.2837 24.1216 12.14 23.8929 10.9963C23.359 8.29704 22.8175 5.60544 22.2685 2.92147C22.1884 2.48685 22.0282 2.36102 21.5935 2.32671H7.30565C6.52776 2.32671 6.41338 2.41823 6.26467 3.1731L2.35238 22.6853C2.21511 23.3601 2.4782 23.6689 3.176 23.6689H11.9958C12.129 23.6575 12.263 23.6575 12.3962 23.6689C12.5557 23.6899 12.7022 23.7683 12.8082 23.8892C12.9143 24.0102 12.9728 24.1656 12.9728 24.3265C12.9728 24.4874 12.9143 24.6428 12.8082 24.7638C12.7022 24.8848 12.5557 24.9631 12.3962 24.9842H3.10737C2.79544 25.0025 2.48359 24.9472 2.19703 24.8227C1.91046 24.6981 1.65725 24.5079 1.45787 24.2674C1.25849 24.0268 1.11855 23.7427 1.04938 23.438C0.980212 23.1334 0.983754 22.8167 1.05972 22.5137L4.56019 4.99164C4.72034 4.22533 4.86904 3.44759 5.01776 2.70416C5.0958 2.21446 5.35091 1.77043 5.73468 1.4563C6.11844 1.14218 6.60418 0.979815 7.09974 1H26.9586C27.4482 0.979762 27.9281 1.13971 28.3076 1.44957C28.6871 1.75942 28.9398 2.19768 29.0177 2.6813C29.7842 6.48994 30.5392 10.31 31.3056 14.1187C31.3369 14.2102 31.3484 14.3073 31.3395 14.4036C31.3306 14.4999 31.3014 14.5932 31.2539 14.6775C31.2063 14.7617 31.1415 14.8349 31.0637 14.8924C30.9859 14.9498 30.8968 14.9902 30.8023 15.0108C30.7095 15.027 30.6143 15.0239 30.5227 15.0017C30.4312 14.9795 30.3451 14.9387 30.27 14.8819C30.1949 14.825 30.1323 14.7533 30.0861 14.6712C30.0399 14.5891 30.0111 14.4983 30.0015 14.4046C29.5554 12.1972 29.1207 10.0012 28.6746 7.79381C28.3542 6.19257 28.0454 4.59133 27.7251 2.99009C27.645 2.57835 27.4391 2.36105 27.073 2.36105C25.8833 2.3153 24.7394 2.32671 23.5725 2.32671Z" stroke="#999999" stroke-width="0.5"/>
<path d="M8.97589 6.19218C8.97589 5.586 8.97589 4.97982 8.97589 4.37364C8.96624 4.28244 8.97593 4.19023 9.00434 4.10303C9.03276 4.01583 9.07925 3.93564 9.14079 3.86764C9.20233 3.79963 9.27754 3.74537 9.36148 3.7084C9.44542 3.67144 9.53621 3.65257 9.62793 3.65308C9.71993 3.64776 9.81201 3.66237 9.89786 3.69587C9.98371 3.72938 10.0613 3.78099 10.1254 3.84722C10.1894 3.91345 10.2385 3.99274 10.2691 4.07964C10.2997 4.16654 10.3113 4.25902 10.3029 4.35078C10.3029 5.39158 10.3029 6.43236 10.3029 7.47316C10.2848 7.99885 10.3705 8.52297 10.5551 9.01554C10.7397 9.50811 11.0194 9.95953 11.3785 10.344C11.7375 10.7285 12.1688 11.0385 12.6477 11.2563C13.1265 11.4741 13.6436 11.5955 14.1694 11.6135C14.6952 11.6315 15.2194 11.5458 15.712 11.3613C16.2047 11.1768 16.6562 10.8971 17.0407 10.5381C17.4253 10.1791 17.7353 9.74793 17.9532 9.26915C18.171 8.79037 18.2925 8.27338 18.3105 7.74768C18.3105 6.60394 18.3105 5.52884 18.3105 4.43085C18.2938 4.28401 18.3234 4.1356 18.3952 4.00642C18.467 3.87723 18.5773 3.7737 18.7109 3.71029C18.8046 3.66071 18.9092 3.63516 19.0153 3.63598C19.1214 3.6368 19.2256 3.66395 19.3186 3.71497C19.4116 3.76599 19.4904 3.83929 19.5481 3.9283C19.6057 4.01731 19.6404 4.11924 19.6489 4.22495C19.781 5.82354 19.7234 7.43216 19.4773 9.01721C19.1717 10.2107 18.4612 11.261 17.4671 11.9889C16.473 12.7168 15.2571 13.0771 14.0268 13.0082C12.7966 12.9394 11.6284 12.4456 10.7218 11.6114C9.81523 10.7771 9.22642 9.65402 9.05596 8.43393C8.953 7.6905 8.98733 6.19218 8.97589 6.19218Z" stroke="#999999" stroke-width="0.5"/>
</svg>
